<svg width="24" height="24" viewBox="0 0 24 24" fill="none" xmlns="http://www.w3.org/2000/svg">
<path d="M12 21C12.8284 21 13.5 20.3284 13.5 19.5C13.5 18.6716 12.8284 18 12 18C11.1716 18 10.5 18.6716 10.5 19.5C10.5 20.3284 11.1716 21 12 21Z" fill="#FDB056"/>
<path d="M10.8775 14.6437C10.8869 15.2578 11.3885 15.75 12.0025 15.75C12.6166 15.75 13.1181 15.2531 13.1275 14.6437L13.5025 4.5375C13.526 4.15313 13.3853 3.77813 13.1135 3.4875C12.8228 3.17813 12.4197 3 12.0025 3C11.5853 3 11.1822 3.17813 10.8916 3.4875C10.6197 3.77813 10.4791 4.15313 10.5025 4.5375L10.8775 14.6437Z" fill="#FDB056"/>
</svg>
