<svg width="22" height="16" viewBox="0 0 22 16" fill="none" xmlns="http://www.w3.org/2000/svg">
<path d="M19.9209 0.954503L8.09847 13.4715L2.08142 6.78548C1.81012 6.4865 1.35133 6.46305 1.05303 6.73148C0.754736 6.99991 0.7306 7.46021 0.999032 7.75851L7.54449 15.0313C7.68085 15.1826 7.87401 15.2692 8.07719 15.272H8.08572C8.28603 15.272 8.47633 15.1896 8.61413 15.044L20.9777 1.95309C21.2533 1.66121 21.2405 1.20098 20.9493 0.92539C20.6582 0.649117 20.1951 0.662548 19.9209 0.954503Z" fill="#424748"/>
<path d="M20.2852 1.29688C20.3589 1.21835 20.4799 1.20441 20.5693 1.25977L20.6055 1.28809C20.6959 1.37367 20.7004 1.51782 20.6143 1.60938L8.25098 14.7002C8.20711 14.7466 8.14795 14.7724 8.08594 14.7725H8.08398C8.03507 14.7718 7.9891 14.7552 7.95117 14.7275L7.91602 14.6963L1.37109 7.42383C1.2873 7.33071 1.29484 7.18714 1.3877 7.10352C1.4802 7.02027 1.62371 7.0253 1.71094 7.12109L7.72656 13.8057L8.08984 14.209L8.46191 13.8145L20.2842 1.29785L20.2852 1.29688Z" stroke="#FDB056" stroke-opacity="0.32"/>
</svg>
