<svg width="14" height="14" viewBox="0 0 14 14" fill="none" xmlns="http://www.w3.org/2000/svg">
<path d="M7.3035 0.229147L8.68872 5.0942C8.71863 5.19927 8.80075 5.28137 8.9058 5.31128L13.7709 6.6965C14.0764 6.78349 14.0764 7.21652 13.7709 7.3035L8.9058 8.68872C8.80073 8.71863 8.71863 8.80075 8.68872 8.9058L7.3035 13.7709C7.21651 14.0764 6.78348 14.0764 6.6965 13.7709L5.31128 8.9058C5.28137 8.80073 5.19925 8.71863 5.0942 8.68872L0.229147 7.3035C-0.0763822 7.21652 -0.0763822 6.78349 0.229147 6.6965L5.0942 5.31128C5.19927 5.28137 5.28137 5.19925 5.31128 5.0942L6.6965 0.229147C6.78348 -0.0763822 7.21651 -0.0763822 7.3035 0.229147Z" fill="white"/>
</svg>
